<svg id="visual" viewBox="0 0 900 600" width="900" height="600" xmlns="http://www.w3.org/2000/svg" xmlns:xlink="http://www.w3.org/1999/xlink" version="1.1"><path d="M0 491L21.5 478.5C43 466 86 441 128.8 433.2C171.7 425.3 214.3 434.7 257.2 451C300 467.3 343 490.7 385.8 492C428.7 493.3 471.3 472.7 514.2 462.7C557 452.7 600 453.3 642.8 458.3C685.7 463.3 728.3 472.7 771.2 467.7C814 462.7 857 443.3 878.5 433.7L900 424L900 601L878.5 601C857 601 814 601 771.2 601C728.3 601 685.7 601 642.8 601C600 601 557 601 514.2 601C471.3 601 428.7 601 385.8 601C343 601 300 601 257.2 601C214.3 601 171.7 601 128.8 601C86 601 43 601 21.5 601L0 601Z" fill="#26c069" stroke-linecap="round" stroke-linejoin="miter"></path></svg>