<svg id="visual" viewBox="0 0 900 600" width="900" height="600" xmlns="http://www.w3.org/2000/svg" xmlns:xlink="http://www.w3.org/1999/xlink" version="1.1"><rect x="0" y="0" width="900" height="600" fill="#002233"></rect><path d="M0 145L21.5 149.5C43 154 86 163 128.8 158.5C171.7 154 214.3 136 257.2 133C300 130 343 142 385.8 143.5C428.7 145 471.3 136 514.2 137C557 138 600 149 642.8 147.8C685.7 146.7 728.3 133.3 771.2 129C814 124.7 857 129.3 878.5 131.7L900 134L900 0L878.5 0C857 0 814 0 771.2 0C728.3 0 685.7 0 642.8 0C600 0 557 0 514.2 0C471.3 0 428.7 0 385.8 0C343 0 300 0 257.2 0C214.3 0 171.7 0 128.8 0C86 0 43 0 21.5 0L0 0Z" fill="#0066FF" stroke-linecap="round" stroke-linejoin="miter"></path></svg>